<svg width="52" height="52" viewBox="0 0 52 52" fill="none" xmlns="http://www.w3.org/2000/svg">
<path d="M23.5 32C27.8638 32.2834 32.2794 32.2393 36.0504 31.1052C39.8214 29.9712 42.7144 28.2328 44.2591 26.1726C45.8038 24.1123 45.9094 21.8514 44.5587 19.7574C43.2081 17.6633 40.4805 15.8593 36.8195 14.6385C33.1585 13.4177 28.7793 12.8519 24.3938 13.0331C20.0082 13.2144 15.8742 14.132 12.6638 15.6367C9.45331 17.1415 7.35518 19.145 6.71044 21.3215C6.0657 23.498 6.91226 25.7195 9.1125 27.625C10.075 28.4167 12.8 30.2 16 31" stroke="#454953" stroke-width="2" stroke-linecap="round"/>
<path d="M31.5 22.5L34.5 25.5L37.5 22.5" stroke="#454953" stroke-width="1.5"/>
<path d="M26 29L23 32L26 35" stroke="#454953" stroke-width="1.5"/>
<path d="M34.4188 25.0117C34.7022 20.6478 34.2392 16.2206 33.1052 12.4496C31.9712 8.67859 30.2328 5.78561 28.1725 4.2409C26.1123 2.69619 23.8514 2.59059 21.7574 3.94127C19.6633 5.29194 17.8593 8.01947 16.6385 11.6805C15.4177 15.3415 14.8519 19.7207 15.0331 24.1062C15.2144 28.4918 16.132 32.6258 17.6367 35.8362C19.1415 39.0467 21.145 41.1448 23.3215 41.7896C25.498 42.4343 27.7195 41.5877 29.625 39.3875C30.5833 38.2583 32.6 35.2 33 32" stroke="#454953" stroke-width="2" stroke-linecap="round"/>
</svg>
