<svg width="52" height="52" viewBox="0 0 52 52" fill="none" xmlns="http://www.w3.org/2000/svg">
<path d="M26.773 7.79011L41.5077 11.7194C41.9454 11.8361 42.25 12.2325 42.25 12.6856V30.3729C42.25 32.379 41.2474 34.2524 39.5782 35.3652L26.5547 44.0475C26.2188 44.2714 25.7812 44.2715 25.4453 44.0475L12.4218 35.3652C10.7526 34.2524 9.75 32.379 9.75 30.3729V12.6856C9.75 12.2325 10.0546 11.8361 10.4923 11.7194L25.227 7.79011C25.7335 7.65505 26.2665 7.65505 26.773 7.79011Z" stroke="#454953" stroke-width="2" stroke-linecap="round"/>
<path d="M20.5833 24.916L24.7399 29.0726C24.8375 29.1702 24.9958 29.1702 25.0934 29.0726L32.5 21.666" stroke="#454953" stroke-width="2" stroke-linecap="round"/>
</svg>
