<svg width="52" height="52" viewBox="0 0 52 52" fill="none" xmlns="http://www.w3.org/2000/svg">
<path d="M25.9987 8.66699L10.832 15.167L25.9987 21.667L41.1654 15.167L25.9987 8.66699Z" stroke="#454953" stroke-width="2" stroke-linejoin="round"/>
<path d="M41.5596 25.0811C41.927 25.2387 42.165 25.6002 42.165 26C42.165 26.3999 41.9271 26.7613 41.5596 26.9189L26.3926 33.4189C26.1411 33.5267 25.856 33.5267 25.6045 33.4189L10.4385 26.9189C10.071 26.7613 9.83203 26.3999 9.83203 26C9.8321 25.6001 10.071 25.2387 10.4385 25.0811L19.6631 21.127L22.2002 22.2139L13.3691 26L25.998 31.4121L38.627 26L29.7959 22.2148L32.333 21.127L41.5596 25.0811ZM25.6045 18.5811C25.8559 18.4733 26.1411 18.4734 26.3926 18.5811L27.2568 18.9512L25.998 19.4912L24.7393 18.9512L25.6045 18.5811Z" fill="#454953"/>
<path d="M41.5596 35.915C41.9271 36.0727 42.165 36.4341 42.165 36.834C42.1649 37.2337 41.9269 37.5953 41.5596 37.7529L26.3926 44.2529C26.1411 44.3606 25.8559 44.3607 25.6045 44.2529L10.4385 37.7529C10.071 37.5954 9.8322 37.2338 9.83203 36.834C9.83203 36.4341 10.071 36.0727 10.4385 35.915L19.6641 31.96L22.2012 33.0479L13.3691 36.834L25.998 42.2461L38.627 36.834L29.7949 33.0479L32.332 31.96L41.5596 35.915ZM25.6045 29.415C25.856 29.3072 26.1411 29.3073 26.3926 29.415L27.2559 29.7842L25.998 30.3242L24.7402 29.7852L25.6045 29.415Z" fill="#454953"/>
</svg>
