<svg width="52" height="52" viewBox="0 0 52 52" fill="none" xmlns="http://www.w3.org/2000/svg">
<path d="M39 6.50002L39.5 6.50002C42.3284 6.50002 43.7426 6.50001 44.6213 7.37869C45.5 8.25737 45.5 9.67159 45.5 12.5L45.5 18.5C45.5 18.9714 45.5 19.2071 45.3536 19.3536C45.2071 19.5 44.9714 19.5 44.5 19.5L32.5 19.5M39 6.50002L38.5 6.50002C35.6716 6.50002 34.2574 6.50002 33.3787 7.37869C32.5 8.25737 32.5 9.67159 32.5 12.5L32.5 19.5M39 6.50002L10.5 6.50002C8.61438 6.50002 7.67157 6.50002 7.08579 7.0858C6.5 7.67159 6.5 8.6144 6.5 10.5L6.5 45.5L13 43.3333L19.5 45.5L26 43.3333L32.5 45.5L32.5 19.5" stroke="#454953" stroke-width="2"/>
<path d="M15.1641 15.167L23.8307 15.167" stroke="#454953" stroke-width="2" stroke-linecap="round"/>
<path d="M17.3359 23.833H15.1693" stroke="#454953" stroke-width="2" stroke-linecap="round"/>
<path d="M15.1641 32.5L21.6641 32.5" stroke="#454953" stroke-width="2" stroke-linecap="round"/>
</svg>
