<svg width="52" height="52" viewBox="0 0 52 52" fill="none" xmlns="http://www.w3.org/2000/svg">
<path d="M44.8356 37.547C45.6097 34.6578 45.7088 31.6293 45.1253 28.6957C44.5418 25.7622 43.2912 23.0021 41.4704 20.6292C39.6495 18.2562 37.3072 16.3339 34.6246 15.011C31.942 13.6881 28.9911 13 26 13C23.0089 13 20.058 13.6881 17.3754 15.011C14.6928 16.3339 12.3505 18.2562 10.5296 20.6292C8.70877 23.0021 7.45821 25.7622 6.87469 28.6957C6.29116 31.6293 6.3903 34.6578 7.16445 37.547" stroke="#454953" stroke-width="2" stroke-linecap="round"/>
<path d="M27.6575 33.7623C28.7137 35.2992 27.9709 37.6439 25.9985 38.9994C24.0261 40.3548 21.571 40.2076 20.5148 38.6707C19.2058 36.7658 14.1639 24.6199 12.1306 19.6682C11.927 19.1723 12.5336 18.7554 12.9235 19.1233C16.8173 22.7965 26.3485 31.8574 27.6575 33.7623Z" stroke="#454953" stroke-width="2"/>
<path d="M26 13V17.3333" stroke="#454953" stroke-width="2" stroke-linecap="round"/>
<path d="M12.2129 18.7109L15.277 21.7751" stroke="#454953" stroke-linecap="round"/>
<path d="M39.7871 18.7109L36.723 21.7751" stroke="#454953" stroke-width="2" stroke-linecap="round"/>
<path d="M44.8357 37.5469L40.65 36.4253" stroke="#454953" stroke-width="2" stroke-linecap="round"/>
<path d="M7.16431 37.5469L11.35 36.4253" stroke="#454953" stroke-width="2" stroke-linecap="round"/>
</svg>
