<svg width="160" height="111" viewBox="0 0 160 111" fill="none" xmlns="http://www.w3.org/2000/svg">
<g clip-path="url(#clip0_221058_98719)">
<path d="M46.1563 59.4872C32.2224 38.3254 13.6821 26.3179 4.74539 32.6677C-4.19129 39.0176 -0.140192 61.3202 13.7938 82.482C27.7277 103.644 46.2681 115.651 55.2047 109.301C64.1414 102.952 60.0903 80.649 46.1563 59.4872Z" fill="#101113"/>
<path d="M119.872 44.5979C122.239 42.3437 122.549 32.1293 109.093 31.1967C97.4647 30.3916 90.0859 32.0085 90.0859 32.0085" stroke="#B5B6B6"/>
<path d="M90.5684 1.67716C104.841 1.67716 102.968 12.6799 100.288 16.6046L99.707 16.6382C100.934 16.6382 102.161 16.6717 103.485 16.7723C114.077 17.5439 112.624 27.2048 111.59 29.1504L111.106 29.3852L111.171 29.3852C124.636 30.3245 124.313 40.5221 121.956 42.8032C141.945 43.7424 158.704 48.3716 158.381 60.3807C157.639 86.747 86.2735 56.1876 95.6382 65.6808C110.17 80.4405 109.944 98.9573 101.871 100.635C95.5413 101.976 88.9215 82.2855 77.6516 77.1531C65.0255 71.4505 44.8753 80.3399 32.4429 87.2166C16.9428 81.8494 8.74064 58.1667 6.60938 46.9627C12.2282 46.2583 23.3689 46.9963 32.4429 36.8993C44.1649 20.3281 56.4358 11.4052 69.4172 5.06519C72.162 3.7234 80.6225 1.67716 90.5684 1.67716Z" fill="white"/>
<path d="M121.966 42.7764C124.333 40.5222 124.643 30.3077 111.187 29.3752C99.5584 28.5701 92.1797 30.187 92.1797 30.187" stroke="#101113" stroke-width="2"/>
<path d="M77.6516 45.2855C107.522 40.8844 158.956 39.442 158.381 60.3807C157.658 86.7302 86.2961 56.1674 95.6511 65.6707C110.176 80.4304 109.944 98.9539 101.871 100.635C95.5381 101.953 88.9182 82.2754 77.6516 77.1531C65.0481 71.4237 44.8785 80.3265 32.4429 87.2166C16.9428 81.8494 8.76325 58.1432 6.60938 46.9627C12.2508 46.2415 23.3721 46.9896 32.4429 36.8993C44.1842 20.3147 56.4616 11.4119 69.4333 5.05848C72.1587 3.7234 80.6321 1.67717 90.5684 1.67717C104.835 1.67717 102.985 12.6832 100.291 16.5979L91.8084 16.9669C91.8084 16.9669 97.298 16.3195 103.485 16.769C114.08 17.5405 112.637 27.2015 111.59 29.1504" stroke="#101113" stroke-width="2"/>
</g>
<defs>
<clipPath id="clip0_221058_98719">
<rect width="111" height="160" fill="white" transform="translate(4.85197e-06 111) rotate(-90)"/>
</clipPath>
</defs>
</svg>
